# xmcd
#
# Track frame offsets:
#	150
#	28929
#	46979
#	67642
#	82194
#
# Disc length: 1449 seconds
#
# Revision: 0
# Processed by: cddbd v1.5.2PL0 Copyright (c) Steve Scherf et al.
# Submitted via: audiograbber 1.83.01
#
DISCID=3905a705
DTITLE=Editors - Cuttings II (In This Light and On This Evening)
DYEAR=2009
DGENRE=Rock
TTITLE0=This House Is Full Of Noise
TTITLE1=I Want A Forest
TTITLE2=A Life As A Ghost
TTITLE3=Human
TTITLE4=For The Money
EXTD=
EXTT0=
EXTT1=
EXTT2=
EXTT3=
EXTT4=
PLAYORDER=
